<?xml version="1.0" standalone="no"?>
<!DOCTYPE svg PUBLIC "-//W3C//DTD SVG 1.1//EN" "http://www.w3.org/Graphics/SVG/1.1/DTD/svg11.dtd" >
<svg>
<metadata>
Created by FontForge 20110222 at Thu Jan 31 14:13:42 2013
 By www-data
Copyright (c) 2010-2011, Ruben Prol (ipanemagrafica@gmail.com|www.ipanemagrafica.com),
with Reserved Font Name Carme.
</metadata>
<defs>
<font id="Carme" horiz-adv-x="1269" >
  <font-face 
    font-family="Carme"
    font-weight="400"
    font-stretch="normal"
    units-per-em="2048"
    panose-1="2 0 0 0 0 0 0 0 0 0"
    ascent="1638"
    descent="-410"
    x-height="1024"
    cap-height="1434"
    bbox="-51 -513 3566 1946"
    underline-thickness="102"
    underline-position="-102"
    unicode-range="U+0020-FB04"
  />
<missing-glyph horiz-adv-x="819" 
 />
    <glyph glyph-name=".notdef" horiz-adv-x="819" 
 />
    <glyph glyph-name=".null" horiz-adv-x="0" 
 />
    <glyph glyph-name="nonmarkingreturn" horiz-adv-x="682" 
 />
    <glyph glyph-name="space" unicode=" " horiz-adv-x="471" 
 />
    <glyph glyph-name="exclam" unicode="!" horiz-adv-x="614" 
d="M205 0v205h205v-205h-205zM205 412v1022h205v-1022h-205z" />
    <glyph glyph-name="quotedbl" unicode="&#x22;" horiz-adv-x="983" 
d="M287 1577h164l-21 -367h-123zM532 1577h164l-20 -367h-123z" />
    <glyph glyph-name="numbersign" unicode="#" horiz-adv-x="1312" 
d="M41 348v123h201l80 492h-281v122h301l57 349h164l-57 -349h430l57 349h164l-57 -349h170v-122h-191l-80 -492h271v-123h-291l-55 -348h-164l55 348h-430l-55 -348h-164l55 348h-180zM406 471h430l79 492h-430z" />
    <glyph glyph-name="dollar" unicode="$" horiz-adv-x="954" 
d="M37 1106q0 141 109.5 236.5t267.5 115.5v98h143v-96q133 -20 221 -69q45 -25 84 -54l-69 -151q-45 33 -70 47q-88 49 -166 67v-489q100 -55 148.5 -87t106.5 -85t82 -116.5t24 -149.5q0 -143 -103.5 -251t-257.5 -140v-166h-143v155q-139 8 -275 92q-51 33 -102 80
l72 154q55 -47 98 -76q121 -82 207 -94v584q-199 104 -262 159q-115 101 -115 236zM221 1106q0 -117 193 -217v411q-84 -18 -138.5 -67t-54.5 -127zM557 143q78 27 127 87.5t49 142.5q0 143 -176 258v-488z" />
    <glyph glyph-name="percent" unicode="%" horiz-adv-x="1298" 
d="M51 1174q0 121 81 205.5t196 84.5q117 0 197.5 -85t80.5 -205q0 -119 -81 -204t-197 -85q-115 0 -196 85t-81 204zM154 0l792 1434h184l-792 -1434h-184zM174 1174q0 -68 44 -117t109.5 -49t110.5 49t45 117q0 70 -45 118.5t-110.5 48.5t-109.5 -48.5t-44 -118.5z
M690 258q0 121 81 206t196 85q117 0 197.5 -85t80.5 -206q0 -119 -81 -204t-197 -85q-115 0 -196 85t-81 204zM813 258q0 -68 44 -117t109.5 -49t110.5 49t45 117q0 70 -45 119t-110.5 49t-109.5 -49t-44 -119z" />
    <glyph glyph-name="ampersand" unicode="&#x26;" horiz-adv-x="1314" 
d="M53 354q0 131 81 230.5t222 195.5q-160 172 -159 363q0 23 2 47t19.5 78.5t47 93.5t94 70.5t154.5 31.5q205 0 293 -161q39 -74 41 -160q0 -193 -232 -385l265 -303q51 119 51 221h184q0 -197 -100 -369l274 -307h-262l-131 152q-186 -182 -408 -183q-188 0 -312 111.5
t-124 273.5zM238 371q0 -86 72.5 -151.5t183.5 -65.5q145 0 280 141l-307 354q-117 -82 -173 -143t-56 -135zM381 1157q0 -113 127 -268q156 127 156 268q-2 37 -19 72q-39 72 -125 71q-90 0 -123 -71q-12 -29 -16 -72z" />
    <glyph glyph-name="quotesingle" unicode="'" horiz-adv-x="583" 
d="M188 1210l41 367h164l-82 -367h-123z" />
    <glyph glyph-name="parenleft" unicode="(" horiz-adv-x="606" 
d="M29 522q0 463 377 912h163q-375 -477 -374 -916q0 -436 374 -928h-163q-377 477 -377 932z" />
    <glyph glyph-name="parenright" unicode=")" horiz-adv-x="604" 
d="M35 -410q375 492 375 928q0 438 -375 916h164q377 -449 376 -912q0 -455 -376 -932h-164z" />
    <glyph glyph-name="asterisk" unicode="*" horiz-adv-x="935" 
d="M31 1092q6 23 24.5 72.5t26.5 76.5l305 -104v327h160v-327l311 104q8 -27 25.5 -78t23.5 -71l-309 -105l190 -262q-63 -51 -129 -94l-190 262l-193 -262l-131 94l193 262q-125 39 -307 105z" />
    <glyph glyph-name="plus" unicode="+" horiz-adv-x="892" 
d="M16 616v185h338v317h185v-317h338v-185h-338v-317h-185v317h-338z" />
    <glyph glyph-name="comma" unicode="," horiz-adv-x="583" 
d="M168 -252l61 471h205l-123 -471h-143z" />
    <glyph glyph-name="hyphen" unicode="-" horiz-adv-x="774" 
d="M80 365v184h614v-184h-614z" />
    <glyph glyph-name="period" unicode="." horiz-adv-x="583" 
d="M188 0v219h205v-219h-205z" />
    <glyph glyph-name="slash" unicode="/" horiz-adv-x="571" 
d="M14 0l359 1434h184l-358 -1434h-185z" />
    <glyph glyph-name="zero" unicode="0" 
d="M61 716.5q0 323.5 150.5 535.5t431.5 212q276 0 420.5 -211t144.5 -536.5t-144 -536.5t-421 -211q-281 0 -431.5 212t-150.5 535.5zM246 717q0 -258 102.5 -425t294.5 -167q188 0 284.5 166t96.5 426t-96.5 426t-284.5 166q-193 0 -295 -167t-102 -425z" />
    <glyph glyph-name="one" unicode="1" 
d="M348 1229v143l432 62v-1434h-184v1264z" />
    <glyph glyph-name="two" unicode="2" 
d="M186 1305q61 45 125 79q156 80 291 80q178 0 321.5 -118.5t143.5 -311.5q0 -246 -348 -585l-270 -265h634v-184h-868v184l399 396q268 268 269 446q0 137 -77 210t-208 73q-98 0 -213 -66q-43 -23 -96 -65z" />
    <glyph glyph-name="three" unicode="3" 
d="M174 143l127 101q55 -55 141 -91t172 -36q129 0 212 87t83 222q0 129 -77.5 217t-215.5 88v154q102 0 156.5 57t54.5 148q0 88 -54 156.5t-167 68.5q-143 0 -266 -94l-94 120q160 123 356 123q195 0 304.5 -107.5t109.5 -250.5q0 -98 -53.5 -185t-149.5 -110
q94 -16 161.5 -82.5t95.5 -144.5t28 -158t-31 -158t-89 -146.5t-158.5 -110.5t-227.5 -42q-287 0 -418 174z" />
    <glyph glyph-name="four" unicode="4" 
d="M154 326v131l604 977h184v-977h174v-131h-174v-326h-184v326h-604zM352 457h406v698z" />
    <glyph glyph-name="five" unicode="5" 
d="M172 25l41 159q57 -18 98 -28q119 -29 226 -29q152 0 261 78t109 258q0 166 -105.5 269.5t-326.5 103.5h-250v598h750v-136h-553v-307h57q305 -2 462 -139t157 -389q0 -231 -150.5 -362.5t-427.5 -131.5q-147 0 -258 27q-49 13 -90 29z" />
    <glyph glyph-name="six" unicode="6" 
d="M135 694q0 383 147.5 576.5t422.5 193.5q117 0 243 -37q47 -14 96 -34l-59 -144q-61 20 -92 29q-119 31 -188 31q-170 0 -279 -152.5t-109 -382.5q41 82 134.5 133t224.5 51q221 0 340 -125.5t119 -347.5q0 -252 -142.5 -384t-353.5 -132q-238 0 -371 186.5t-133 538.5z
M342 477q0 -152 89 -252t220 -100q137 0 218 93t81 261q0 150 -77.5 233t-204.5 83q-117 0 -221.5 -78t-104.5 -240z" />
    <glyph glyph-name="seven" unicode="7" 
d="M246 1298v136h778l-512 -1434h-184l463 1298h-545z" />
    <glyph glyph-name="eight" unicode="8" 
d="M141 406q0 145 80 259.5t213 145.5q-96 23 -151.5 115t-55.5 190q0 143 105.5 245.5t304.5 102.5t304.5 -102t105.5 -246q0 -98 -56.5 -190t-150.5 -115q133 -31 211.5 -145.5t78.5 -259.5q0 -176 -120.5 -306.5t-372.5 -130.5q-131 0 -230.5 39t-154.5 103.5t-83 139.5
t-28 155zM326 406q0 -287 311 -287t311 287q0 156 -80 242.5t-231.5 86.5t-231 -86.5t-79.5 -242.5zM412 1100q0 -92 58 -153.5t166.5 -61.5t167 61.5t58.5 153.5q0 90 -53 157.5t-172 67.5t-172 -67.5t-53 -157.5z" />
    <glyph glyph-name="nine" unicode="9" 
d="M135 948q0 252 142.5 384t353.5 132q238 0 371 -186t133 -539q0 -385 -147.5 -577.5t-422.5 -192.5q-123 0 -243 35q-55 16 -97 37l60 143q43 -18 92 -30q111 -29 188 -29q170 0 278.5 152.5t108.5 381.5q-41 -82 -134 -133t-224 -51q-221 0 -340 126t-119 347zM319 954
q0 -150 78 -232.5t205 -82.5q117 0 221.5 78t104.5 239q0 152 -89 252.5t-221 100.5q-137 0 -218 -93.5t-81 -261.5z" />
    <glyph glyph-name="colon" unicode=":" horiz-adv-x="583" 
d="M190 0v219h205v-219h-205zM190 682v219h205v-219h-205z" />
    <glyph glyph-name="semicolon" unicode=";" horiz-adv-x="583" 
d="M158 -252l61 471h205l-123 -471h-143zM219 682v219h205v-219h-205z" />
    <glyph glyph-name="less" unicode="&#x3c;" horiz-adv-x="1054" 
d="M8 575v242l969 400v-185l-825 -336l825 -331v-185z" />
    <glyph glyph-name="equal" unicode="=" horiz-adv-x="1101" 
d="M80 365v184h942v-184h-942zM80 803v184h942v-184h-942z" />
    <glyph glyph-name="greater" unicode="&#x3e;" horiz-adv-x="1056" 
d="M80 180v185l825 331l-825 336v185l969 -400v-242z" />
    <glyph glyph-name="question" unicode="?" horiz-adv-x="983" 
d="M66 1350q158 115 397 114q117 0 209 -41t143 -106.5t77 -134t26 -133.5q0 -104 -38 -193.5t-92.5 -151t-109.5 -117t-93 -116.5t-38 -127h-185q0 74 33 144.5t67 110.5t105 116q53 57 80 90t56.5 101.5t29.5 142.5q0 96 -68.5 181t-201.5 85q-170 0 -291 -88zM362 0v184
h185v-184h-185z" />
    <glyph glyph-name="at" unicode="@" horiz-adv-x="1624" 
d="M55 481q0 305 229.5 526.5t538.5 221.5q307 0 527.5 -220.5t220.5 -527.5q0 -254 -94.5 -403.5t-231.5 -149.5q-172 0 -231 232q-20 -33 -60 -64q-82 -61 -194 -61q-164 0 -263.5 126t-99.5 292q0 178 118 311t331 133q119 0 217 -47q39 -20 72 -47v-463
q0 -129 31.5 -195.5t78.5 -66.5q80 0 110.5 94t30.5 309q0 248 -164.5 423t-398 175t-408.5 -176t-175 -422q0 -248 164.5 -423t398.5 -175q76 0 143 15q41 8 62 14l28 -150q-18 -6 -59 -14q-68 -14 -174 -14q-307 0 -527.5 220t-220.5 527zM532 449q0 -115 66 -202t172 -87
q131 0 223 94v481q-8 6 -35 17q-51 18 -106 18q-152 0 -236 -96t-84 -225z" />
    <glyph glyph-name="A" unicode="A" horiz-adv-x="1538" 
d="M82 0l592 1434h184l598 -1434h-184l-201 479h-608l-197 -479h-184zM520 614h496l-250 631z" />
    <glyph glyph-name="B" unicode="B" horiz-adv-x="1300" 
d="M176 0v1434h492q127 0 220 -35t140 -92.5t67.5 -114.5t20.5 -117q0 -168 -135 -260q231 -109 231 -362q0 -199 -140 -326t-390 -127h-506zM360 135h287q381 0 381 318q0 145 -88 211.5t-274 70.5h-306v-600zM360 872h273q170 0 234.5 46.5t64.5 156.5q0 115 -65.5 169
t-233.5 54q-31 -2 -96 -2h-177v-424z" />
    <glyph glyph-name="C" unicode="C" horiz-adv-x="1413" 
d="M123 717q0 307 220 527t527 220q250 0 455 -155l-119 -119q-156 119 -336 119q-233 0 -398 -174t-165 -418t165 -418t398 -174q184 0 336 117l119 -119q-207 -154 -455 -154q-307 0 -527 220.5t-220 527.5z" />
    <glyph glyph-name="D" unicode="D" horiz-adv-x="1466" 
d="M176 0v1434h440q324 0 525.5 -209t201.5 -508t-201.5 -508t-525.5 -209h-440zM360 135h175q150 0 264 39t181 98.5t108.5 140.5t56 153.5t14.5 150.5t-14.5 150.5t-56 153.5t-108.5 140.5t-181.5 98t-263.5 38.5h-175v-1163z" />
    <glyph glyph-name="E" unicode="E" horiz-adv-x="1177" 
d="M176 0v1434h914v-131h-730v-455h607v-131h-607v-586h730v-131h-914z" />
    <glyph glyph-name="F" unicode="F" horiz-adv-x="1085" 
d="M176 0v1434h821v-131h-637v-455h551v-131h-551v-717h-184z" />
    <glyph glyph-name="G" unicode="G" horiz-adv-x="1488" 
d="M123 717q0 307 220 527t527 220q250 0 455 -155l-119 -119q-156 119 -336 119q-233 0 -398 -174t-165 -418t165 -418t398 -174q199 0 353 131v358h-275v131h459v-548q-63 -63 -123 -103q-188 -125 -414 -125q-307 0 -527 220.5t-220 527.5z" />
    <glyph glyph-name="H" unicode="H" horiz-adv-x="1437" 
d="M176 0v1434h184v-650h717v650h185v-1434h-185v649h-717v-649h-184z" />
    <glyph glyph-name="I" unicode="I" horiz-adv-x="536" 
d="M176 0v1434h184v-1434h-184z" />
    <glyph glyph-name="J" unicode="J" horiz-adv-x="702" 
d="M82 -37v143q156 4 208 83t52 290v955h184v-762q0 -121 -2 -200t-10 -156.5t-21.5 -125t-37 -90.5t-54 -65.5t-79 -40t-104.5 -23.5t-136 -8z" />
    <glyph glyph-name="K" unicode="K" horiz-adv-x="1355" 
d="M176 0v1434h184v-750l656 750h205l-557 -631l610 -803h-217l-510 666l-187 -213v-453h-184z" />
    <glyph glyph-name="L" unicode="L" horiz-adv-x="1136" 
d="M176 0v1434h184v-1299h695v-135h-879z" />
    <glyph glyph-name="M" unicode="M" horiz-adv-x="1581" 
d="M156 0v1434h184l440 -633l441 633h184v-1434h-184v1147l-371 -516h-141l-369 514v-1145h-184z" />
    <glyph glyph-name="N" unicode="N" horiz-adv-x="1398" 
d="M156 0v1434h184l719 -1127v1127h184v-1434h-184l-719 1128v-1128h-184z" />
    <glyph glyph-name="O" unicode="O" horiz-adv-x="1740" 
d="M123 717q0 311 209 529t528.5 218t538.5 -219t219 -528t-219 -528.5t-538.5 -219.5t-528.5 218.5t-209 529.5zM307 717q0 -248 155.5 -420t397.5 -172t408 173t166 419t-166 419t-408 173t-397.5 -172t-155.5 -420z" />
    <glyph glyph-name="P" unicode="P" horiz-adv-x="1290" 
d="M176 0v1434h496q205 0 350 -140.5t145 -337t-145 -336t-350 -139.5h-312v-481h-184zM360 616h312q129 0 220 99.5t91 241t-91 241.5t-220 100h-312v-682z" />
    <glyph glyph-name="Q" unicode="Q" horiz-adv-x="1638" 
d="M123 717q0 307 203.5 527t492.5 220t493 -220t204 -527q0 -264 -154 -468t-389 -261l418 -109v-155l-779 276q-217 80 -353 273.5t-136 443.5zM307 717q0 -246 149.5 -419t362.5 -173t362.5 173t149.5 419t-149.5 419t-362.5 173t-362.5 -173t-149.5 -419z" />
    <glyph glyph-name="R" unicode="R" horiz-adv-x="1228" 
d="M176 0v1434h455q207 0 351 -130t144 -327q0 -147 -82.5 -260t-220.5 -162l324 -555h-184l-304 522h-299v-522h-184zM360 657h271q131 0 221 90.5t90 229.5t-90 230t-221 91h-271v-641z" />
    <glyph glyph-name="S" unicode="S" horiz-adv-x="1101" 
d="M111 1106q0 158 136 258t314 100q137 0 273 -63q45 -20 102 -64l-70 -151q-45 35 -94 61q-115 61 -211 62q-104 0 -185 -53.5t-81 -149.5q0 -39 15.5 -72t53.5 -62l58 -45q20 -15 76.5 -44t62.5 -33l95 -52q69 -38 94 -55l75 -50q51 -34 72 -61.5t47.5 -67.5t36.5 -87
t10 -104q0 -172 -143 -288t-328 -116q-154 0 -297 86q-63 37 -112 88l71 154q57 -51 113 -86q131 -86 225 -86q119 0 203 69.5t84 178.5q0 96 -71.5 172t-174.5 128l-205 107q-102 55 -173.5 137.5t-71.5 188.5z" />
    <glyph glyph-name="T" unicode="T" horiz-adv-x="1085" 
d="M20 1298v136h1045v-136h-430v-1298h-184v1298h-431z" />
    <glyph glyph-name="U" unicode="U" horiz-adv-x="1519" 
d="M176 532v902h184v-942q0 -90 41 -161t105.5 -111t132.5 -60.5t131.5 -20.5t131 20.5t132 60.5t105.5 110.5t41 161.5v942h184v-902q0 -133 -42 -236t-105.5 -162.5t-147.5 -98.5t-155.5 -52.5t-143.5 -13.5q-70 0 -143.5 13.5t-156.5 52.5t-146.5 99.5t-105.5 163.5
t-42 234z" />
    <glyph glyph-name="V" unicode="V" horiz-adv-x="1359" 
d="M82 1434h182l416 -1194l414 1194h184l-506 -1434h-184z" />
    <glyph glyph-name="W" unicode="W" horiz-adv-x="2011" 
d="M82 1434h184l316 -1162l346 1162h182l317 -1162l318 1162h184l-409 -1434h-185l-315 1159l-346 -1159h-185z" />
    <glyph glyph-name="X" unicode="X" horiz-adv-x="1345" 
d="M82 0l479 715l-479 719h223l367 -553l368 553h224l-480 -719l480 -715h-226l-366 547l-365 -547h-225z" />
    <glyph glyph-name="Y" unicode="Y" horiz-adv-x="1292" 
d="M82 1434h184l371 -615l389 615h184l-489 -777v-657h-172v657z" />
    <glyph glyph-name="Z" unicode="Z" horiz-adv-x="1218" 
d="M88 0v135l817 1163h-817v136h1042v-136l-817 -1163h817v-135h-1042z" />
    <glyph glyph-name="bracketleft" unicode="[" horiz-adv-x="651" 
d="M80 -410v1844h541v-185h-357v-1474h357v-185h-541z" />
    <glyph glyph-name="backslash" unicode="\" horiz-adv-x="571" 
d="M14 1434h185l358 -1434h-184z" />
    <glyph glyph-name="bracketright" unicode="]" horiz-adv-x="651" 
d="M33 -225h356v1474h-356v185h540v-1844h-540v185z" />
    <glyph glyph-name="underscore" unicode="_" horiz-adv-x="1331" 
d="M80 -209h1171v-184h-1171v184z" />
    <glyph glyph-name="grave" unicode="`" horiz-adv-x="610" 
d="M80 1536h225l201 -272h-184z" />
    <glyph glyph-name="a" unicode="a" horiz-adv-x="1099" 
d="M111 324q0 137 100 229t281 92h272v78q0 94 -37 134t-137 40q-74 0 -225 -16l-138 -17v160q111 8 164 14q180 16 268 17q145 0 213 -82t68 -189v-784h-129l-29 100h-6q-178 -121 -342 -120q-156 0 -239.5 105.5t-83.5 238.5zM289 324q0 -80 42 -143.5t138 -63.5
q68 0 152 29.5t141 68.5h2v293h-272q-203 0 -203 -184z" />
    <glyph glyph-name="b" unicode="b" horiz-adv-x="1150" 
d="M143 0v1536h170v-537q158 55 299 56q113 0 199 -45t134 -120t71.5 -162t23.5 -179q0 -270 -140 -409.5t-441 -139.5h-316zM313 158h146q217 0 312 94t95 303q0 137 -62.5 239.5t-193.5 102.5q-174 0 -297 -49v-690z" />
    <glyph glyph-name="c" unicode="c" horiz-adv-x="1028" 
d="M111 512q0 225 157.5 384t380.5 159q137 0 277 -31v-156q-139 31 -277 31q-156 0 -263 -113.5t-107 -273.5t107.5 -273.5t262.5 -113.5q137 0 277 31v-156q-139 -31 -277 -31q-223 0 -380.5 159t-157.5 384z" />
    <glyph glyph-name="d" unicode="d" horiz-adv-x="1153" 
d="M111 547q0 135 45 246.5t147.5 186.5t243.5 75q147 0 289 -80v561h174v-1536h-123l-25 76q-137 -106 -297 -107q-190 0 -322 170t-132 408zM285 563q0 -178 86 -307t221 -129q129 0 244 78v624q-131 78 -275 78q-125 0 -200.5 -91t-75.5 -253z" />
    <glyph glyph-name="e" unicode="e" horiz-adv-x="1120" 
d="M111 516q0 246 131 392.5t346 146.5q428 0 428 -604h-735q10 -127 93 -226.5t253 -99.5q197 0 338 65v-161q-154 -59 -316 -60q-141 0 -246.5 44t-168 121t-93 173t-30.5 209zM287 586h553q-14 137 -76 225t-180 88q-117 0 -199 -86t-98 -227z" />
    <glyph glyph-name="f" unicode="f" horiz-adv-x="872" 
d="M111 866v158h159v244q0 121 74 194.5t182 73.5h252v-158h-160q-106 0 -140 -43t-34 -159v-152h271v-158h-271v-866h-174v866h-159z" />
    <glyph glyph-name="g" unicode="g" horiz-adv-x="1185" 
d="M143 508q0 141 45 262t146.5 203t243.5 82q125 0 309 -90l28 59h111v-1167q0 -174 -102 -271q-104 -98 -306 -98q-217 0 -440 119l88 133q180 -96 352 -96q236 0 236 213v182q-129 -70 -248 -70q-221 0 -342 156t-121 383zM313 520q0 -78 15.5 -144.5t49.5 -128t98.5 -96
t154.5 -34.5q131 0 223 51v682q-143 66 -252 65q-131 0 -210 -103.5t-79 -291.5z" />
    <glyph glyph-name="h" unicode="h" horiz-adv-x="1173" 
d="M152 0v1536h170v-584q170 102 331 103q156 0 258.5 -89t102.5 -241v-725h-174v725q0 168 -207 168q-145 0 -311 -111v-782h-170z" />
    <glyph glyph-name="i" unicode="i" horiz-adv-x="514" 
d="M164 0v1024h174v-1024h-174zM164 1276v158h174v-158h-174z" />
    <glyph glyph-name="j" unicode="j" horiz-adv-x="581" 
d="M143 -356q51 0 88 48t37 122v1210h170v-1210q0 -141 -87 -233.5t-208 -92.5v156zM268 1276v158h170v-158h-170z" />
    <glyph glyph-name="k" unicode="k" horiz-adv-x="1124" 
d="M152 0v1536h170v-911l380 399h234l-354 -369l448 -655h-213l-356 530l-139 -145v-385h-170z" />
    <glyph glyph-name="l" unicode="l" horiz-adv-x="501" 
d="M152 0v1536h174v-1536h-174z" />
    <glyph glyph-name="m" unicode="m" horiz-adv-x="1585" 
d="M143 0v1024h123l21 -59q115 90 248 90q78 0 156.5 -28t123.5 -79q119 106 268 107q121 0 223.5 -60.5t102.5 -165.5v-829h-174v748q0 150 -178 149q-111 0 -195 -68v-829h-174v748q0 150 -178 149q-115 0 -197 -70v-827h-170z" />
    <glyph glyph-name="n" unicode="n" horiz-adv-x="1165" 
d="M143 0v1024h123l27 -78q168 109 332 109q170 0 275.5 -81t105.5 -247v-727h-175v727q0 170 -206 170q-160 0 -312 -106v-791h-170z" />
    <glyph glyph-name="o" unicode="o" horiz-adv-x="1304" 
d="M111 512q0 229 151.5 386t388.5 157q236 0 389.5 -158t153.5 -385t-153.5 -385t-389.5 -158q-238 0 -389 157t-151 386zM276 512q0 -164 102.5 -275.5t272.5 -111.5q168 0 271.5 111.5t103.5 275.5t-103.5 275.5t-271.5 111.5q-170 0 -272.5 -111.5t-102.5 -275.5z" />
    <glyph glyph-name="p" unicode="p" horiz-adv-x="1163" 
d="M152 -512v1536h110l27 -57q180 88 327 88q141 0 244 -82t148 -201t45 -254q0 -236 -119 -392.5t-336 -156.5q-145 0 -276 68v-549h-170zM322 168q98 -51 247 -51q117 0 189.5 63.5t97.5 151.5t25 205q0 166 -80 272t-199 106q-123 0 -280 -65v-682z" />
    <glyph glyph-name="q" unicode="q" horiz-adv-x="1173" 
d="M111 485q0 111 33.5 210.5t100 181t181.5 130t262 48.5q88 0 223 -21q86 -14 119 -20v-1526h-172v545q-154 -53 -289 -53q-207 0 -332.5 155t-125.5 350zM281 485q0 -131 81.5 -239.5t206.5 -108.5q117 0 287 66v676l-63 8q-57 10 -105 10q-201 0 -304 -120t-103 -292z
" />
    <glyph glyph-name="r" unicode="r" horiz-adv-x="839" 
d="M143 0v1024h123l25 -72q131 100 233 101q111 0 205 -49l-67 -138q-88 31 -162 31q-102 0 -187 -76v-821h-170z" />
    <glyph glyph-name="s" unicode="s" horiz-adv-x="1030" 
d="M111 133l110 117q39 -31 101 -64q119 -61 204 -61q76 0 150 42t74 118q0 70 -71 114.5t-239 106.5q-70 25 -108.5 41t-88.5 48t-74 75t-24 98q0 129 119 208t268 79q111 0 238 -54q53 -23 100 -53l-104 -125q-33 20 -72 37q-90 39 -162 39q-84 0 -150.5 -37t-66.5 -94
q0 -18 16.5 -35.5t52.5 -34t61.5 -26.5t72.5 -27q115 -43 171 -68.5t118.5 -68.5t87.5 -96.5t25 -126.5q0 -104 -70 -179t-156 -106t-168 -31q-125 0 -284 82q-70 37 -131 82z" />
    <glyph glyph-name="t" unicode="t" horiz-adv-x="823" 
d="M111 866v158h174v297h174v-297h254v-158h-254v-565q0 -76 23.5 -109.5t103.5 -33.5h106v-158h-184q-100 0 -161.5 53t-61.5 144v669h-174z" />
    <glyph glyph-name="u" unicode="u" horiz-adv-x="1165" 
d="M160 313v711h170v-711q0 -86 75.5 -133t176.5 -47q102 0 177 47t75 133v711h172v-711q0 -160 -130.5 -252t-294 -92t-292.5 91t-129 253z" />
    <glyph glyph-name="v" unicode="v" horiz-adv-x="1185" 
d="M94 1024h185l313 -844l315 844h185l-402 -1024h-196z" />
    <glyph glyph-name="w" unicode="w" horiz-adv-x="1671" 
d="M94 1024h185l233 -811l238 811h172l235 -811l236 811h184l-322 -1024h-196l-225 809l-224 -809h-194z" />
    <glyph glyph-name="x" unicode="x" horiz-adv-x="1136" 
d="M94 0l379 512l-379 512h193l282 -383l283 383h190l-380 -512l380 -512h-190l-283 383l-282 -383h-193z" />
    <glyph glyph-name="y" unicode="y" horiz-adv-x="1142" 
d="M94 1024h195l280 -750l287 750h193l-590 -1536h-193l219 563z" />
    <glyph glyph-name="z" unicode="z" horiz-adv-x="956" 
d="M111 0v156l551 712h-551v156h735v-156l-551 -712h551v-156h-735z" />
    <glyph glyph-name="braceleft" unicode="{" horiz-adv-x="651" 
d="M14 449v126q76 0 120 44.5t60.5 127t20.5 204.5t-2 278q0 322 389 307v-184q-51 0 -79.5 -4.5t-61.5 -20.5t-48.5 -55t-15.5 -105q0 -152 -10 -260t-35.5 -203.5t-76 -143.5t-123.5 -48q74 0 124 -48t75.5 -143.5t35.5 -204t10 -259.5q0 -66 15.5 -105t48.5 -55
t61.5 -20.5t79.5 -4.5v-184q-389 -14 -389 307q6 156 2 278t-20.5 204.5t-60.5 127t-120 44.5z" />
    <glyph glyph-name="bar" unicode="|" horiz-adv-x="339" 
d="M80 -512v2048h184v-2048h-184z" />
    <glyph glyph-name="braceright" unicode="}" horiz-adv-x="653" 
d="M51 -328q51 0 80 4.5t61.5 20.5t48 55t15.5 105v135q0 45 3 120.5t8 114.5t14.5 94.5t25 82t36 56t51 41t67.5 11.5q-37 0 -68 11.5t-51 41t-35.5 56t-25 82t-14.5 94.5t-8 114.5t-3 120.5v135q0 66 -15.5 105t-48 55t-61.5 20.5t-80 4.5v184q17 1 33 1q357 0 356 -308
q-4 -93 -3 -175q0 -54 1 -103q4 -122 20.5 -204.5t60.5 -127t120 -44.5v-126q-76 0 -120 -44.5t-60.5 -127t-20.5 -204.5q-2 -49 -1 -103q0 -81 3 -175q0 -308 -356 -308q-16 0 -33 1v184z" />
    <glyph glyph-name="uni00A0" unicode="&#xa0;" horiz-adv-x="471" 
 />
    <glyph glyph-name="exclamdown" unicode="&#xa1;" horiz-adv-x="614" 
d="M205 -205v1022h205v-1022h-205zM205 1024v205h205v-205h-205z" />
    <glyph glyph-name="cent" unicode="&#xa2;" horiz-adv-x="937" 
d="M47 512q0 195 123 344.5t309 185.5v209h144v-196q102 -2 239 -31v-156q-137 29 -239 31v-774q119 2 239 31v-156q-137 -29 -239 -31v-172h-144v185q-186 37 -309 186t-123 344zM215 512q0 -129 73.5 -231.5t190.5 -139.5v742q-117 -37 -190.5 -139.5t-73.5 -231.5z" />
    <glyph glyph-name="dieresis" unicode="&#xa8;" horiz-adv-x="696" 
d="M80 1348v188h174v-188h-174zM438 1348v188h174v-188h-174z" />
    <glyph glyph-name="copyright" unicode="&#xa9;" horiz-adv-x="1306" 
d="M219 1030q0 182 121 308t311 126q188 0 311 -126t123 -308t-122.5 -308t-311.5 -126q-190 0 -311 126t-121 308zM352 1030q0 -131 82 -220t217 -89t217 89t82 220t-82 220t-217 89t-217 -89t-82 -220zM451 1022q0 92 61 154.5t152 62.5q57 0 112 -12v-62q-55 12 -112 13
q-59 0 -103.5 -46.5t-44.5 -110t44 -108.5t104 -45q51 0 112 11v-62q-55 -12 -112 -12q-88 0 -150.5 63.5t-62.5 153.5z" />
    <glyph glyph-name="ordfeminine" unicode="&#xaa;" horiz-adv-x="452" 
d="M55 1093.5q0 57.5 38 96.5t110 39h94v20q0 61 -57 62l-142 -15v80q106 12 168 13q59 0 86 -35t27 -80v-316h-64l-10 33q-61 -41 -121 -41q-63 0 -96 43t-33 100.5zM139 1094q0 -74 56 -74q51 0 102 35v102h-94q-64 0 -64 -63z" />
    <glyph glyph-name="logicalnot" unicode="&#xac;" horiz-adv-x="1122" 
d="M16 616v185h1004v-449h-207v264h-797z" />
    <glyph glyph-name="uni00AD" unicode="&#xad;" horiz-adv-x="774" 
d="M80 365v184h614v-184h-614z" />
    <glyph glyph-name="registered" unicode="&#xae;" horiz-adv-x="1294" 
d="M219 1030q0 182 121 308t311 126q188 0 311 -126t123 -308t-122.5 -308t-311.5 -126q-190 0 -311 126t-121 308zM352 1030q0 -131 82 -220t217 -89t217 89t82 220t-82 220t-217 89t-217 -89t-82 -220zM524 821v410h129q57 0 99.5 -38t42.5 -93q0 -41 -25 -74t-63 -47
l94 -158h-53l-86 150h-87v-150h-51zM575 1010h78q39 0 64.5 24.5t25.5 65.5t-25.5 66.5t-64.5 25.5h-78v-182z" />
    <glyph glyph-name="degree" unicode="&#xb0;" horiz-adv-x="552" 
d="M57 1161q0 92 61.5 156.5t158 64.5t159 -64.5t62.5 -156.5t-62.5 -156.5t-159 -64.5t-158 64.5t-61.5 156.5zM137 1161.5q0 -61.5 38 -103.5t101.5 -42t101.5 42t38 103.5t-38 103.5t-101.5 42t-101.5 -42t-38 -103.5z" />
    <glyph glyph-name="plusminus" unicode="&#xb1;" horiz-adv-x="915" 
d="M16 0v184h861v-184h-861zM16 616v185h338v317h185v-317h338v-185h-338v-317h-185v317h-338z" />
    <glyph glyph-name="uni00B2" unicode="&#xb2;" horiz-adv-x="491" 
d="M63 1331q25 16 58 33q70 35 115 35q74 0 133 -49.5t59 -128.5q0 -94 -139 -234l-92 -94h235v-86h-354v84l160 158q102 102 102 170q0 49 -29.5 77.5t-74.5 28.5q-49 0 -123 -53q-4 6 -22 26z" />
    <glyph glyph-name="uni00B3" unicode="&#xb3;" horiz-adv-x="483" 
d="M51 872l62 50q53 -53 120 -54q49 0 79 32t30 83q0 47 -29.5 78t-85.5 35v75q84 10 84 74q0 31 -19.5 56.5t-60.5 25.5q-47 0 -106 -41l-47 60q82 53 151 53q80 0 126 -45t46 -103q0 -59 -57 -114q41 -27 64.5 -71t23.5 -83q0 -70 -53 -129t-154 -59q-115 -1 -174 77z" />
    <glyph glyph-name="acute" unicode="&#xb4;" horiz-adv-x="657" 
d="M100 1264l201 272h225l-241 -272h-185z" />
    <glyph glyph-name="cedilla" unicode="&#xb8;" horiz-adv-x="563" 
d="M94 -426l25 117q55 -8 90 -8q127 0 127 77q0 86 -168 86l35 164h159l-22 -96q152 -27 152 -154q0 -94 -81 -145t-206 -51q-45 0 -111 10z" />
    <glyph glyph-name="uni00B9" unicode="&#xb9;" horiz-adv-x="280" 
d="M16 1290v72l189 27v-582h-88v498z" />
    <glyph glyph-name="ordmasculine" unicode="&#xba;" horiz-adv-x="1304" 
d="M111 512q0 229 151.5 386t388.5 157q236 0 389.5 -158t153.5 -385t-153.5 -385t-389.5 -158q-238 0 -389 157t-151 386zM276 512q0 -164 102.5 -275.5t272.5 -111.5q168 0 271.5 111.5t103.5 275.5t-103.5 275.5t-271.5 111.5q-170 0 -272.5 -111.5t-102.5 -275.5z" />
    <glyph glyph-name="onequarter" unicode="&#xbc;" horiz-adv-x="3719" 
d="M348 1229v143l432 62v-1434h-184v1264zM1276 -57l983 1491h184l-983 -1491h-184zM2603 326v131l604 977h184v-977h175v-131h-175v-326h-184v326h-604zM2802 457h405v698z" />
    <glyph glyph-name="onehalf" unicode="&#xbd;" horiz-adv-x="3719" 
d="M348 1229v143l432 62v-1434h-184v1264zM1276 -57l983 1491h184l-983 -1491h-184zM2636 1305q61 45 125 79q156 80 291 80q178 0 321 -118.5t143 -311.5q0 -246 -348 -585l-270 -265h635v-184h-869v184l400 396q268 268 268 446q0 137 -77 210t-208 73q-98 0 -213 -66
q-43 -23 -96 -65z" />
    <glyph glyph-name="threequarters" unicode="&#xbe;" horiz-adv-x="3719" 
d="M174 143l127 101q55 -55 141 -91t172 -36q129 0 212 87t83 222q0 129 -77.5 217t-215.5 88v154q102 0 156.5 57t54.5 148q0 88 -54 156.5t-167 68.5q-143 0 -266 -94l-94 120q160 123 356 123q195 0 304.5 -107.5t109.5 -250.5q0 -98 -53.5 -185t-149.5 -110
q94 -16 161.5 -82.5t95.5 -144.5t28 -158t-31 -158t-89 -146.5t-158.5 -110.5t-227.5 -42q-287 0 -418 174zM1276 -57l983 1491h184l-983 -1491h-184zM2603 326v131l604 977h184v-977h175v-131h-175v-326h-184v326h-604zM2802 457h405v698z" />
    <glyph glyph-name="questiondown" unicode="&#xbf;" horiz-adv-x="983" 
d="M66 180q0 104 37.5 193.5t93.5 150.5l109 117q54 55 92 116.5t38 127.5h185q0 -74 -33 -144.5t-67 -110.5t-105 -116q-53 -57 -80 -90t-56.5 -101.5t-29.5 -142.5q0 -96 68.5 -181t201.5 -85q170 0 291 88l107 -123q-158 -115 -398 -115q-117 0 -209 41t-143 106.5
t-76.5 134t-25.5 134.5zM436 1044v185h185v-185h-185z" />
    <glyph glyph-name="Agrave" unicode="&#xc0;" horiz-adv-x="1538" 
d="M82 0l592 1434h184l598 -1434h-184l-201 479h-608l-197 -479h-184zM514 1946h225l201 -273h-184zM520 614h496l-250 631z" />
    <glyph glyph-name="Aacute" unicode="&#xc1;" horiz-adv-x="1538" 
d="M82 0l592 1434h184l598 -1434h-184l-201 479h-608l-197 -479h-184zM520 614h496l-250 631zM596 1673l201 273h225l-242 -273h-184z" />
    <glyph glyph-name="Acircumflex" unicode="&#xc2;" horiz-adv-x="1538" 
d="M82 0l592 1434h184l598 -1434h-184l-201 479h-608l-197 -479h-184zM442 1673l201 273h250l201 -273h-185l-141 201l-141 -201h-185zM520 614h496l-250 631z" />
    <glyph glyph-name="Atilde" unicode="&#xc3;" horiz-adv-x="1538" 
d="M82 0l592 1434h184l598 -1434h-184l-201 479h-608l-197 -479h-184zM459 1722q0 94 57 159t117 65q45 0 135 -43q70 -37 119 -37q51 2 55 80h135q0 -90 -41 -157t-123 -67q-51 0 -168 50q-70 31 -96 30q-18 0 -33.5 -20.5t-21.5 -40.5l-6 -19h-129zM520 614h496l-250 631z
" />
    <glyph glyph-name="Adieresis" unicode="&#xc4;" horiz-adv-x="1538" 
d="M82 0l592 1434h184l598 -1434h-184l-201 479h-608l-197 -479h-184zM502 1757v189h174v-189h-174zM520 614h496l-250 631zM860 1757v189h174v-189h-174z" />
    <glyph glyph-name="Aring" unicode="&#xc5;" horiz-adv-x="1538" 
d="M82 0l592 1434h184l598 -1434h-184l-201 479h-608l-197 -479h-184zM520 614h496l-250 631zM600 1777.5q0 69.5 49 119t119 49.5t119 -49.5t49 -119t-49 -118.5t-119 -49t-119 49t-49 118.5zM682 1777.5q0 -34.5 25.5 -60t60.5 -25.5t60.5 25.5t25.5 60t-25.5 60.5
t-60.5 26t-60.5 -26t-25.5 -60.5z" />
    <glyph glyph-name="AE" unicode="&#xc6;" horiz-adv-x="1927" 
d="M84 0l717 1434h1040v-131h-729v-455h606v-131h-606v-586h729v-131h-913v479h-422l-238 -479h-184zM575 614h353v689z" />
    <glyph glyph-name="Ccedilla" unicode="&#xc7;" horiz-adv-x="1310" 
d="M49 717q0 307 220 527t528 220q250 0 454 -155l-118 -119q-156 119 -336 119q-233 0 -398.5 -174t-165.5 -418t165 -418t399 -174q184 0 336 117l118 -119q-98 -74 -211 -113q-92 -33 -202 -39l-13 -57q152 -27 152 -154q0 -92 -81 -144t-206 -52q-49 0 -110 10l24 117
q55 -8 90 -8q127 0 127 77q0 86 -168 86l27 131q-96 16 -174 52q-205 90 -331 275.5t-126 412.5z" />
    <glyph glyph-name="Egrave" unicode="&#xc8;" horiz-adv-x="1177" 
d="M176 0v1434h914v-131h-730v-455h607v-131h-607v-586h730v-131h-914zM313 1946h226l200 -273h-184z" />
    <glyph glyph-name="Eacute" unicode="&#xc9;" horiz-adv-x="1177" 
d="M176 0v1434h914v-131h-730v-455h607v-131h-607v-586h730v-131h-914zM457 1673l200 273h226l-242 -273h-184z" />
    <glyph glyph-name="Ecircumflex" unicode="&#xca;" horiz-adv-x="1177" 
d="M176 0v1434h914v-131h-730v-455h607v-131h-607v-586h730v-131h-914zM262 1673l201 273h250l200 -273h-184l-141 201l-142 -201h-184z" />
    <glyph glyph-name="Edieresis" unicode="&#xcb;" horiz-adv-x="1177" 
d="M176 0v1434h914v-131h-730v-455h607v-131h-607v-586h730v-131h-914zM322 1757v189h174v-189h-174zM680 1757v189h174v-189h-174z" />
    <glyph glyph-name="Igrave" unicode="&#xcc;" horiz-adv-x="548" 
d="M76 1946h225l201 -273h-185zM197 0v1434h184v-1434h-184z" />
    <glyph glyph-name="Iacute" unicode="&#xcd;" horiz-adv-x="548" 
d="M80 1673l201 273h225l-242 -273h-184zM201 0v1434h184v-1434h-184z" />
    <glyph glyph-name="Icircumflex" unicode="&#xce;" horiz-adv-x="1003" 
d="M176 1673l201 273h250l200 -273h-184l-141 201l-142 -201h-184zM410 0v1434h184v-1434h-184z" />
    <glyph glyph-name="Idieresis" unicode="&#xcf;" horiz-adv-x="548" 
d="M16 1757v189h174v-189h-174zM190 0v1434h185v-1434h-185zM375 1757v189h174v-189h-174z" />
    <glyph glyph-name="Eth" unicode="&#xd0;" horiz-adv-x="1466" 
d="M20 604v144h156v686h440q324 0 525.5 -209t201.5 -508t-201.5 -508t-525.5 -209h-440v604h-156zM360 135h175q150 0 264 39t181 98.5t108.5 140.5t56 153.5t14.5 150.5t-14.5 150.5t-56 153.5t-108.5 140.5t-181.5 98t-263.5 38.5h-175v-550h357v-144h-357v-469z" />
    <glyph glyph-name="Ntilde" unicode="&#xd1;" horiz-adv-x="1398" 
d="M156 0h184v1128l719 -1128h184v1434h-184v-1127l-719 1127h-184v-1434zM389 1722q0 94 57.5 159t116.5 65q45 0 135 -43q70 -37 119 -37q51 2 55 80h136q0 -90 -41 -157t-123 -67q-51 0 -168 50q-70 31 -96 30q-18 0 -34 -20.5t-22 -40.5l-6 -19h-129z" />
    <glyph glyph-name="Ograve" unicode="&#xd2;" horiz-adv-x="1740" 
d="M123 717q0 311 209 529t528.5 218t538.5 -219t219 -528t-219 -528.5t-538.5 -219.5t-528.5 218.5t-209 529.5zM307 717q0 -248 155.5 -420t397.5 -172t408 173t166 419t-166 419t-408 173t-397.5 -172t-155.5 -420zM575 1946h226l200 -273h-184z" />
    <glyph glyph-name="Oacute" unicode="&#xd3;" horiz-adv-x="1740" 
d="M123 717q0 311 209 529t528.5 218t538.5 -219t219 -528t-219 -528.5t-538.5 -219.5t-528.5 218.5t-209 529.5zM307 717q0 -248 155.5 -420t397.5 -172t408 173t166 419t-166 419t-408 173t-397.5 -172t-155.5 -420zM739 1673l201 273h225l-241 -273h-185z" />
    <glyph glyph-name="Ocircumflex" unicode="&#xd4;" horiz-adv-x="1740" 
d="M123 717q0 311 209 529t528.5 218t538.5 -219t219 -528t-219 -528.5t-538.5 -219.5t-528.5 218.5t-209 529.5zM307 717q0 -248 155.5 -420t397.5 -172t408 173t166 419t-166 419t-408 173t-397.5 -172t-155.5 -420zM545 1673l200 273h250l201 -273h-184l-142 201
l-141 -201h-184z" />
    <glyph glyph-name="Otilde" unicode="&#xd5;" horiz-adv-x="1740" 
d="M123 717q0 311 209 529t528.5 218t538.5 -219t219 -528t-219 -528.5t-538.5 -219.5t-528.5 218.5t-209 529.5zM307 717q0 -248 155.5 -420t397.5 -172t408 173t166 419t-166 419t-408 173t-397.5 -172t-155.5 -420zM561 1722q0 94 57.5 159t116.5 65q45 0 135 -43
q70 -37 119 -37q51 2 55 80h136q0 -90 -41 -157t-123 -67q-51 0 -168 50q-70 31 -96 30q-18 0 -34 -20.5t-22 -40.5l-6 -19h-129z" />
    <glyph glyph-name="Odieresis" unicode="&#xd6;" horiz-adv-x="1740" 
d="M123 717q0 311 209 529t528.5 218t538.5 -219t219 -528t-219 -528.5t-538.5 -219.5t-528.5 218.5t-209 529.5zM307 717q0 -248 155.5 -420t397.5 -172t408 173t166 419t-166 419t-408 173t-397.5 -172t-155.5 -420zM604 1757v189h174v-189h-174zM963 1757v189h174v-189
h-174z" />
    <glyph glyph-name="Oslash" unicode="&#xd8;" horiz-adv-x="1740" 
d="M123 717q0 311 209 529t528.5 218t538.5 -219t219 -528t-219 -528.5t-538.5 -219.5t-528.5 218.5t-209 529.5zM307 717q0 -252 154 -418l26 -29l619 981q-12 8 -19 11q-106 47 -227 47q-242 0 -397.5 -172t-155.5 -420zM616 180l19 -8q104 -47 225 -47q242 0 408 173
t166 419q0 248 -166 418l-33 30z" />
    <glyph glyph-name="Ugrave" unicode="&#xd9;" horiz-adv-x="1519" 
d="M176 532v902h184v-942q0 -90 41 -161t105.5 -111t132.5 -60.5t131.5 -20.5t131 20.5t132 60.5t105.5 110.5t41 161.5v942h184v-902q0 -133 -42 -236t-105.5 -162.5t-147.5 -98.5t-155.5 -52.5t-143.5 -13.5q-70 0 -143.5 13.5t-156.5 52.5t-146.5 99.5t-105.5 163.5
t-42 234zM465 1946h225l201 -273h-184z" />
    <glyph glyph-name="Uacute" unicode="&#xda;" horiz-adv-x="1519" 
d="M176 532v902h184v-942q0 -90 41 -161t105.5 -111t132.5 -60.5t131.5 -20.5t131 20.5t132 60.5t105.5 110.5t41 161.5v942h184v-902q0 -133 -42 -236t-105.5 -162.5t-147.5 -98.5t-155.5 -52.5t-143.5 -13.5q-70 0 -143.5 13.5t-156.5 52.5t-146.5 99.5t-105.5 163.5
t-42 234zM629 1673l200 273h226l-242 -273h-184z" />
    <glyph glyph-name="Ucircumflex" unicode="&#xdb;" horiz-adv-x="1519" 
d="M176 532v902h184v-942q0 -90 41 -161t105.5 -111t132.5 -60.5t131.5 -20.5t131 20.5t132 60.5t105.5 110.5t41 161.5v942h184v-902q0 -133 -42 -236t-105.5 -162.5t-147.5 -98.5t-155.5 -52.5t-143.5 -13.5q-70 0 -143.5 13.5t-156.5 52.5t-146.5 99.5t-105.5 163.5
t-42 234zM434 1673l201 273h250l200 -273h-184l-141 201l-142 -201h-184z" />
    <glyph glyph-name="Udieresis" unicode="&#xdc;" horiz-adv-x="1519" 
d="M176 532v902h184v-942q0 -90 41 -161t105.5 -111t132.5 -60.5t131.5 -20.5t131 20.5t132 60.5t105.5 110.5t41 161.5v942h184v-902q0 -133 -42 -236t-105.5 -162.5t-147.5 -98.5t-155.5 -52.5t-143.5 -13.5q-70 0 -143.5 13.5t-156.5 52.5t-146.5 99.5t-105.5 163.5
t-42 234zM494 1757v189h174v-189h-174zM852 1757v189h174v-189h-174z" />
    <glyph glyph-name="Yacute" unicode="&#xdd;" horiz-adv-x="1292" 
d="M82 1434h184l371 -615l389 615h184l-489 -777v-657h-172v657zM494 1673l200 273h226l-242 -273h-184z" />
    <glyph glyph-name="Thorn" unicode="&#xde;" horiz-adv-x="1234" 
d="M176 0v1434h184v-318h320q172 0 294 -122t122 -294t-122 -292.5t-294 -120.5h-320v-287h-184zM360 442h320q94 0 162.5 76t68.5 182.5t-68.5 183.5t-162.5 77h-320v-519z" />
    <glyph glyph-name="agrave" unicode="&#xe0;" horiz-adv-x="1099" 
d="M111 324q0 137 100 229t281 92h272v78q0 94 -37 134t-137 40q-74 0 -225 -16l-138 -17v160q111 8 164 14q180 16 268 17q145 0 213 -82t68 -189v-784h-129l-29 100h-6q-178 -121 -342 -120q-156 0 -239.5 105.5t-83.5 238.5zM289 324q0 -80 42 -143.5t138 -63.5
q68 0 152 29.5t141 68.5h2v293h-272q-203 0 -203 -184zM319 1536h226l200 -272h-184z" />
    <glyph glyph-name="aacute" unicode="&#xe1;" horiz-adv-x="1099" 
d="M111 324q0 137 100 229t281 92h272v78q0 94 -37 134t-137 40q-74 0 -225 -16l-138 -17v160q111 8 164 14q180 16 268 17q145 0 213 -82t68 -189v-784h-129l-29 100h-6q-178 -121 -342 -120q-156 0 -239.5 105.5t-83.5 238.5zM289 324q0 -80 42 -143.5t138 -63.5
q68 0 152 29.5t141 68.5h2v293h-272q-203 0 -203 -184zM424 1264l201 272h225l-242 -272h-184z" />
    <glyph glyph-name="acircumflex" unicode="&#xe2;" horiz-adv-x="1099" 
d="M111 324q0 137 100 229t281 92h272v78q0 94 -37 134t-137 40q-74 0 -225 -16l-138 -17v160q111 8 164 14q180 16 268 17q145 0 213 -82t68 -189v-784h-129l-29 100h-6q-178 -121 -342 -120q-156 0 -239.5 105.5t-83.5 238.5zM217 1264l201 272h250l200 -272h-184
l-141 200l-142 -200h-184zM289 324q0 -80 42 -143.5t138 -63.5q68 0 152 29.5t141 68.5h2v293h-272q-203 0 -203 -184z" />
    <glyph glyph-name="atilde" unicode="&#xe3;" horiz-adv-x="1099" 
d="M111 324q0 137 100 229t281 92h272v78q0 94 -37 134t-137 40q-74 0 -225 -16l-138 -17v160q111 8 164 14q180 16 268 17q145 0 213 -82t68 -189v-784h-129l-29 100h-6q-178 -121 -342 -120q-156 0 -239.5 105.5t-83.5 238.5zM233 1313q0 94 57.5 158.5t117.5 64.5
q45 0 135 -43q70 -37 119 -37q51 2 55 80h135q0 -90 -41 -156.5t-123 -66.5q-51 0 -168 49q-70 31 -96 31q-18 0 -33.5 -20.5t-21.5 -41.5l-7 -18h-129zM289 324q0 -80 42 -143.5t138 -63.5q68 0 152 29.5t141 68.5h2v293h-272q-203 0 -203 -184z" />
    <glyph glyph-name="adieresis" unicode="&#xe4;" horiz-adv-x="1099" 
d="M111 324q0 137 100 229t281 92h272v78q0 94 -37 134t-137 40q-74 0 -225 -16l-138 -17v160q111 8 164 14q180 16 268 17q145 0 213 -82t68 -189v-784h-129l-29 100h-6q-178 -121 -342 -120q-156 0 -239.5 105.5t-83.5 238.5zM276 1348v188h175v-188h-175zM289 324
q0 -80 42 -143.5t138 -63.5q68 0 152 29.5t141 68.5h2v293h-272q-203 0 -203 -184zM635 1348v188h174v-188h-174z" />
    <glyph glyph-name="aring" unicode="&#xe5;" horiz-adv-x="1099" 
d="M111 324q0 137 100 229t281 92h272v78q0 94 -37 134t-137 40q-74 0 -225 -16l-138 -17v160q111 8 164 14q180 16 268 17q145 0 213 -82t68 -189v-784h-129l-29 100h-6q-178 -121 -342 -120q-156 0 -239.5 105.5t-83.5 238.5zM289 324q0 -80 42 -143.5t138 -63.5
q68 0 152 29.5t141 68.5h2v293h-272q-203 0 -203 -184zM416 1368q0 70 49 119t118.5 49t119 -49t49.5 -119t-49.5 -119t-119 -49t-118.5 49t-49 119zM498 1368q0 -35 25.5 -60.5t60 -25.5t60.5 25.5t26 60.5t-26 60.5t-60.5 25.5t-60 -25.5t-25.5 -60.5z" />
    <glyph glyph-name="ae" unicode="&#xe6;" horiz-adv-x="1806" 
d="M111 324q0 137 100 229t281 92h272v78q0 94 -37 134t-137 40q-74 0 -225 -16l-138 -17v160q111 8 164 14q180 16 268 17q180 0 250 -137q61 66 144 98q86 39 194 39q428 0 428 -604h-735q10 -127 93 -226.5t253 -99.5q197 0 338 65v-161q-154 -59 -315 -60
q-145 0 -248 43q-66 29 -121 74v-86h-129l-29 100h-6q-178 -121 -342 -120q-156 0 -239.5 105.5t-83.5 238.5zM289 324q0 -80 42 -143.5t138 -63.5q68 0 152 29.5t141 68.5h2v293h-272q-203 0 -203 -184zM946 586h553q-14 137 -75.5 225t-180.5 88q-117 0 -199 -86t-98 -227
z" />
    <glyph glyph-name="ccedilla" unicode="&#xe7;" horiz-adv-x="937" 
d="M47 512q0 225 157.5 384t381.5 159q139 0 276 -31v-156q-137 31 -276 31q-156 0 -263.5 -113.5t-107.5 -273.5t107.5 -273.5t263.5 -113.5q139 0 276 31v-156q-137 -31 -276 -31q-25 0 -37 2l-12 -57q152 -27 151 -154q0 -92 -81 -144t-206 -52q-49 0 -110 10l24 117
q55 -8 91 -8q127 0 126 77q0 86 -167 86l32 156l-20 10q-150 66 -240 200t-90 300z" />
    <glyph glyph-name="egrave" unicode="&#xe8;" horiz-adv-x="1120" 
d="M111 516q0 246 131 392.5t346 146.5q428 0 428 -604h-735q10 -127 93 -226.5t253 -99.5q197 0 338 65v-161q-154 -59 -316 -60q-141 0 -246.5 44t-168 121t-93 173t-30.5 209zM264 1536h225l201 -272h-184zM287 586h553q-14 137 -76 225t-180 88q-117 0 -199 -86
t-98 -227z" />
    <glyph glyph-name="eacute" unicode="&#xe9;" horiz-adv-x="1120" 
d="M111 516q0 246 131 392.5t346 146.5q428 0 428 -604h-735q10 -127 93 -226.5t253 -99.5q197 0 338 65v-161q-154 -59 -316 -60q-141 0 -246.5 44t-168 121t-93 173t-30.5 209zM287 586h553q-14 137 -76 225t-180 88q-117 0 -199 -86t-98 -227zM449 1264l200 272h225
l-241 -272h-184z" />
    <glyph glyph-name="ecircumflex" unicode="&#xea;" horiz-adv-x="1120" 
d="M111 516q0 246 131 392.5t346 146.5q428 0 428 -604h-735q10 -127 93 -226.5t253 -99.5q197 0 338 65v-161q-154 -59 -316 -60q-141 0 -246.5 44t-168 121t-93 173t-30.5 209zM240 1264l200 272h250l201 -272h-184l-142 200l-141 -200h-184zM287 586h553q-14 137 -76 225
t-180 88q-117 0 -199 -86t-98 -227z" />
    <glyph glyph-name="edieresis" unicode="&#xeb;" horiz-adv-x="1120" 
d="M111 516q0 246 131 392.5t346 146.5q428 0 428 -604h-735q10 -127 93 -226.5t253 -99.5q197 0 338 65v-161q-154 -59 -316 -60q-141 0 -246.5 44t-168 121t-93 173t-30.5 209zM287 586h553q-14 137 -76 225t-180 88q-117 0 -199 -86t-98 -227zM299 1348v188h174v-188
h-174zM657 1348v188h174v-188h-174z" />
    <glyph glyph-name="igrave" unicode="&#xec;" horiz-adv-x="514" 
d="M6 1536h225l201 -272h-184zM174 0v1024h174v-1024h-174z" />
    <glyph glyph-name="iacute" unicode="&#xed;" horiz-adv-x="514" 
d="M94 1264l201 272h225l-241 -272h-185zM180 0v1024h174v-1024h-174z" />
    <glyph glyph-name="icircumflex" unicode="&#xee;" horiz-adv-x="514" 
d="M-51 1264l201 272h249l201 -272h-184l-142 200l-141 -200h-184zM188 0v1024h174v-1024h-174z" />
    <glyph glyph-name="idieresis" unicode="&#xef;" horiz-adv-x="514" 
d="M12 1348v188h174v-188h-174zM193 0v1024h174v-1024h-174zM371 1348v188h174v-188h-174z" />
    <glyph glyph-name="eth" unicode="&#xf0;" horiz-adv-x="1206" 
d="M82 512q0 225 149.5 384t362.5 159q150 0 270 -84q-74 172 -246 274l-264 -147l-61 110l190 107q-61 27 -161 59l106 111q115 -41 207 -86l153 86l62 -111l-88 -49q344 -252 344 -813q0 -225 -149.5 -384t-362.5 -159t-362.5 159t-149.5 384zM246 512
q0 -160 102.5 -273.5t245.5 -113.5t245.5 113.5t102.5 273.5v16q-8 154 -107.5 262.5t-240.5 108.5q-143 0 -245.5 -113.5t-102.5 -273.5z" />
    <glyph glyph-name="ntilde" unicode="&#xf1;" horiz-adv-x="1015" 
d="M80 0v1024h123l26 -78q168 109 332 109q170 0 275.5 -81t105.5 -247v-727h-174v727q0 170 -207 170q-160 0 -311 -106v-791h-170zM193 1313q0 94 57 158.5t117 64.5q45 0 135 -43q70 -37 119 -37q51 2 55 80h135q0 -90 -41 -156.5t-123 -66.5q-51 0 -168 49
q-70 31 -96 31q-18 0 -33.5 -20.5t-21.5 -41.5l-6 -18h-129z" />
    <glyph glyph-name="ograve" unicode="&#xf2;" horiz-adv-x="1193" 
d="M55 512q0 229 151.5 386t389.5 157q236 0 389.5 -158t153.5 -385t-154 -385t-389 -158q-238 0 -389.5 157t-151.5 386zM221 512q0 -164 102.5 -275.5t272.5 -111.5q168 0 271.5 111.5t103.5 275.5t-103.5 275.5t-271.5 111.5q-170 0 -272.5 -111.5t-102.5 -275.5z
M373 1536h225l201 -272h-185z" />
    <glyph glyph-name="oacute" unicode="&#xf3;" horiz-adv-x="1193" 
d="M55 512q0 229 151.5 386t389.5 157q236 0 389.5 -158t153.5 -385t-154 -385t-389 -158q-238 0 -389.5 157t-151.5 386zM221 512q0 -164 102.5 -275.5t272.5 -111.5q168 0 271.5 111.5t103.5 275.5t-103.5 275.5t-271.5 111.5q-170 0 -272.5 -111.5t-102.5 -275.5z
M393 1264l201 272h225l-241 -272h-185z" />
    <glyph glyph-name="ocircumflex" unicode="&#xf4;" horiz-adv-x="1304" 
d="M111 512q0 229 151.5 386t388.5 157q236 0 389.5 -158t153.5 -385t-153.5 -385t-389.5 -158q-238 0 -389 157t-151 386zM276 512q0 -164 102.5 -275.5t272.5 -111.5q168 0 271.5 111.5t103.5 275.5t-103.5 275.5t-271.5 111.5q-170 0 -272.5 -111.5t-102.5 -275.5z
M326 1264l200 272h250l201 -272h-184l-142 200l-141 -200h-184z" />
    <glyph glyph-name="otilde" unicode="&#xf5;" horiz-adv-x="1304" 
d="M111 512q0 229 151.5 386t388.5 157q236 0 389.5 -158t153.5 -385t-153.5 -385t-389.5 -158q-238 0 -389 157t-151 386zM276 512q0 -164 102.5 -275.5t272.5 -111.5q168 0 271.5 111.5t103.5 275.5t-103.5 275.5t-271.5 111.5q-170 0 -272.5 -111.5t-102.5 -275.5z
M342 1313q0 94 57.5 158.5t116.5 64.5q45 0 135 -43q70 -37 119 -37q51 2 55 80h136q0 -90 -41 -156.5t-123 -66.5q-51 0 -168 49q-70 31 -97 31q-18 0 -33.5 -20.5t-21.5 -41.5l-6 -18h-129z" />
    <glyph glyph-name="odieresis" unicode="&#xf6;" horiz-adv-x="1304" 
d="M111 512q0 229 151.5 386t388.5 157q236 0 389.5 -158t153.5 -385t-153.5 -385t-389.5 -158q-238 0 -389 157t-151 386zM276 512q0 -164 102.5 -275.5t272.5 -111.5q168 0 271.5 111.5t103.5 275.5t-103.5 275.5t-271.5 111.5q-170 0 -272.5 -111.5t-102.5 -275.5z
M385 1348v188h174v-188h-174zM743 1348v188h175v-188h-175z" />
    <glyph glyph-name="oslash" unicode="&#xf8;" horiz-adv-x="1304" 
d="M111 512q0 229 151.5 386t388.5 157q236 0 389.5 -158t153.5 -385t-153.5 -385t-389.5 -158q-238 0 -389 157t-151 386zM276 512q0 -164 101 -274l18 -21l379 664q-57 18 -123 18q-170 0 -272.5 -111.5t-102.5 -275.5zM537 139q49 -14 114 -14q168 0 271.5 111.5
t103.5 275.5q0 166 -102 272l-13 15z" />
    <glyph glyph-name="ugrave" unicode="&#xf9;" horiz-adv-x="1165" 
d="M160 313v711h170v-711q0 -86 75.5 -133t176.5 -47q102 0 177 47t75 133v711h172v-711q0 -160 -130.5 -252t-294 -92t-292.5 91t-129 253zM307 1536h225l201 -272h-184z" />
    <glyph glyph-name="uacute" unicode="&#xfa;" horiz-adv-x="1165" 
d="M160 313v711h170v-711q0 -86 75.5 -133t176.5 -47q102 0 177 47t75 133v711h172v-711q0 -160 -130.5 -252t-294 -92t-292.5 91t-129 253zM430 1264l201 272h225l-242 -272h-184z" />
    <glyph glyph-name="ucircumflex" unicode="&#xfb;" horiz-adv-x="1165" 
d="M160 313v711h170v-711q0 -86 75.5 -133t176.5 -47q102 0 177 47t75 133v711h172v-711q0 -160 -130.5 -252t-294 -92t-292.5 91t-129 253zM256 1264l201 272h250l200 -272h-184l-141 200l-142 -200h-184z" />
    <glyph glyph-name="udieresis" unicode="&#xfc;" horiz-adv-x="1165" 
d="M160 313v711h170v-711q0 -86 75.5 -133t176.5 -47q102 0 177 47t75 133v711h172v-711q0 -160 -130.5 -252t-294 -92t-292.5 91t-129 253zM315 1348v188h174v-188h-174zM674 1348v188h174v-188h-174z" />
    <glyph glyph-name="yacute" unicode="&#xfd;" horiz-adv-x="1142" 
d="M94 1024h195l280 -750l287 750h193l-590 -1536h-193l219 563zM358 1264l201 272h225l-241 -272h-185z" />
    <glyph glyph-name="thorn" unicode="&#xfe;" horiz-adv-x="989" 
d="M164 0v1024h174v-164h213q135 0 232.5 -98t97.5 -234q0 -137 -96.5 -233t-233.5 -96h-213v-199h-174zM338 354h213q68 0 117 50.5t49 123.5q0 72 -49.5 124.5t-116.5 52.5h-213v-351z" />
    <glyph glyph-name="ydieresis" unicode="&#xff;" horiz-adv-x="1142" 
d="M94 1024h195l280 -750l287 750h193l-590 -1536h-193l219 563zM305 1348v188h174v-188h-174zM664 1348v188h174v-188h-174z" />
    <glyph glyph-name="OE" unicode="&#x152;" horiz-adv-x="2242" 
d="M123 717q0 311 209 529t528 218q162 0 273 -49l86 -41v60h913v-131h-729v-455h606v-131h-606v-586h729v-131h-913v55l-86 -39q-113 -47 -273 -47q-319 0 -528 218.5t-209 529.5zM307 717q0 -248 155.5 -420t397.5 -172q121 0 227 47q86 41 132 76v936q-47 41 -132 78
q-106 47 -227 47q-242 0 -397.5 -172t-155.5 -420z" />
    <glyph glyph-name="oe" unicode="&#x153;" horiz-adv-x="1916" 
d="M111 512q0 229 151.5 386t388.5 157q113 0 213.5 -40t153.5 -95l14 -15l2 4q133 145 346 146q428 0 428 -604h-735q10 -127 93 -226.5t253 -99.5q197 0 338 65v-161q-154 -59 -315 -60q-147 0 -248 43q-96 41 -158 111l-20 -23q-45 -45 -146 -88q-98 -43 -219 -43
q-238 0 -389 157t-151 386zM276 512q0 -164 102.5 -275.5t272.5 -111.5q168 0 267 106q4 4 9 10.5t10 13.5t9 11q-8 18 -14 41q-29 102 -29 209q0 119 35 223l6 21q-25 31 -26 33q-98 106 -267 106q-170 0 -272.5 -111.5t-102.5 -275.5zM1079 586h553q-14 137 -75.5 225
t-180.5 88q-117 0 -199 -86t-98 -227z" />
    <glyph glyph-name="Ydieresis" unicode="&#x178;" horiz-adv-x="1292" 
d="M82 1434h184l371 -615l389 615h184l-489 -777v-657h-172v657zM379 1757v189h174v-189h-174zM737 1757v189h174v-189h-174z" />
    <glyph glyph-name="circumflex" unicode="&#x2c6;" horiz-adv-x="856" 
d="M100 1264l201 272h250l201 -272h-185l-141 200l-141 -200h-185z" />
    <glyph glyph-name="tilde" unicode="&#x2dc;" horiz-adv-x="702" 
d="M33 1313q0 94 57 158.5t117 64.5q45 0 135 -43q70 -37 119 -37q51 2 55 80h135q0 -90 -41 -156.5t-123 -66.5q-51 0 -168 49q-70 31 -96 31q-18 0 -33.5 -20.5t-21.5 -41.5l-6 -18h-129z" />
    <glyph glyph-name="uni2000" unicode="&#x2000;" horiz-adv-x="972" 
 />
    <glyph glyph-name="uni2001" unicode="&#x2001;" horiz-adv-x="1945" 
 />
    <glyph glyph-name="uni2002" unicode="&#x2002;" horiz-adv-x="972" 
 />
    <glyph glyph-name="uni2003" unicode="&#x2003;" horiz-adv-x="1945" 
 />
    <glyph glyph-name="uni2004" unicode="&#x2004;" horiz-adv-x="647" 
 />
    <glyph glyph-name="uni2005" unicode="&#x2005;" horiz-adv-x="485" 
 />
    <glyph glyph-name="uni2006" unicode="&#x2006;" horiz-adv-x="323" 
 />
    <glyph glyph-name="uni2007" unicode="&#x2007;" horiz-adv-x="323" 
 />
    <glyph glyph-name="uni2008" unicode="&#x2008;" horiz-adv-x="241" 
 />
    <glyph glyph-name="uni2009" unicode="&#x2009;" horiz-adv-x="389" 
 />
    <glyph glyph-name="uni200A" unicode="&#x200a;" horiz-adv-x="106" 
 />
    <glyph glyph-name="uni2010" unicode="&#x2010;" horiz-adv-x="774" 
d="M80 365v184h614v-184h-614z" />
    <glyph glyph-name="uni2011" unicode="&#x2011;" horiz-adv-x="774" 
d="M80 365v184h614v-184h-614z" />
    <glyph glyph-name="figuredash" unicode="&#x2012;" horiz-adv-x="774" 
d="M80 365v184h614v-184h-614z" />
    <glyph glyph-name="endash" unicode="&#x2013;" horiz-adv-x="1210" 
d="M80 383v184h1050v-184h-1050z" />
    <glyph glyph-name="emdash" unicode="&#x2014;" horiz-adv-x="1564" 
d="M80 383v184h1405v-184h-1405z" />
    <glyph glyph-name="quoteleft" unicode="&#x2018;" horiz-adv-x="296" 
d="M35 1577h164l41 -367h-123z" />
    <glyph glyph-name="quoteright" unicode="&#x2019;" horiz-adv-x="299" 
d="M59 1210l41 367h164l-82 -367h-123z" />
    <glyph glyph-name="quotedblleft" unicode="&#x201c;" horiz-adv-x="616" 
d="M59 1577h164l41 -367h-123zM342 1577h164l41 -367h-123z" />
    <glyph glyph-name="quotedblright" unicode="&#x201d;" horiz-adv-x="616" 
d="M70 1210l41 367h163l-81 -367h-123zM352 1210l41 367h164l-82 -367h-123z" />
    <glyph glyph-name="bullet" unicode="&#x2022;" horiz-adv-x="716" 
d="M100 731.5q0 104.5 74 178t178.5 73.5t178 -73.5t73.5 -178t-73.5 -178.5t-178 -74t-178.5 74t-74 178.5z" />
    <glyph glyph-name="ellipsis" unicode="&#x2026;" horiz-adv-x="1751" 
d="M188 0v219h205v-219h-205zM772 0v219h205v-219h-205zM1356 0v219h205v-219h-205z" />
    <glyph glyph-name="uni202F" unicode="&#x202f;" horiz-adv-x="389" 
 />
    <glyph glyph-name="guilsinglleft" unicode="&#x2039;" horiz-adv-x="1054" 
d="M8 575v242l969 400v-185l-825 -336l825 -331v-185z" />
    <glyph glyph-name="guilsinglright" unicode="&#x203a;" horiz-adv-x="1056" 
d="M80 180v185l825 331l-825 336v185l969 -400v-242z" />
    <glyph glyph-name="fraction" unicode="&#x2044;" horiz-adv-x="1179" 
d="M6 -57l983 1491h185l-984 -1491h-184z" />
    <glyph glyph-name="uni205F" unicode="&#x205f;" horiz-adv-x="485" 
 />
    <glyph glyph-name="Euro" unicode="&#x20ac;" horiz-adv-x="1433" 
d="M137 406v184h135q-8 55 -8 127v45h-127v184h158q61 227 230 372.5t378 145.5q229 0 393 -157l-112 -138q-125 119 -281 119q-133 0 -241.5 -93t-157.5 -249h629v-184h-664v-45q0 -76 10 -127h654v-184h-596q61 -123 156 -192t210 -69q158 0 281 117l112 -137
q-166 -156 -393 -156q-190 0 -346 120t-235 317h-185z" />
    <glyph glyph-name="trademark" unicode="&#x2122;" horiz-adv-x="2666" 
d="M750 1380v54h428v-54h-177v-532h-75v532h-176zM1249 848v586h76l180 -258l181 258h75v-586h-75v469l-152 -213h-59l-150 213v-469h-76z" />
    <glyph glyph-name="uniE000" unicode="&#xe000;" horiz-adv-x="1025" 
d="M0 1025h1025v-1025h-1025v1025z" />
    <glyph glyph-name="uniFB01" unicode="&#xfb01;" horiz-adv-x="1069" 
d="M41 866v158h160v244q0 121 73.5 194.5t182.5 73.5h252v-158h-160q-106 0 -140 -43t-34 -159v-152h626v-1024h-174v866h-452v-866h-174v866h-160zM827 1378v158h174v-158h-174z" />
    <glyph glyph-name="uniFB02" unicode="&#xfb02;" horiz-adv-x="1081" 
d="M41 866v158h160v244q0 121 73.5 194.5t182.5 73.5h544v-1536h-174v1378h-278q-106 0 -140 -43t-34 -159v-152h270v-158h-270v-866h-174v866h-160z" />
    <glyph glyph-name="uniFB03" unicode="&#xfb03;" horiz-adv-x="2258" 
d="M111 866v158h159v244q0 121 74 194.5t182 73.5h252v-158h-160q-106 0 -140 -43t-34 -159v-152h271v-158h-271v-866h-174v866h-159zM983 866v158h160v244q0 121 73.5 194.5t182.5 73.5h252v-158h-160q-106 0 -140 -43t-34 -159v-152h270v-158h-270v-866h-174v866h-160z
M1909 0v1024h174v-1024h-174zM1909 1276v158h174v-158h-174z" />
    <glyph glyph-name="uniFB04" unicode="&#xfb04;" horiz-adv-x="2246" 
d="M111 866v158h159v244q0 121 74 194.5t182 73.5h252v-158h-160q-106 0 -140 -43t-34 -159v-152h271v-158h-271v-866h-174v866h-159zM983 866v158h160v244q0 121 73.5 194.5t182.5 73.5h252v-158h-160q-106 0 -140 -43t-34 -159v-152h270v-158h-270v-866h-174v866h-160z
M1896 0v1536h175v-1536h-175z" />
    </font>
</defs>
</svg>
